<svg width="110" height="30" viewBox="0 0 254 51" xmlns="http://www.w3.org/2000/svg"><g fill="none" fill-rule="evenodd"><path d="M159.923 31.307a5.2 5.2 0 0 1-.488 2.227 5.6 5.6 0 0 1-1.39 1.824 7.5 7.5 0 0 1-1.677 1.05 10 10 0 0 1-2.05.697c-.72.158-1.44.245-2.16.243-1.36-.013-2.41-.276-3.147-.798-.735-.516-1.11-1.253-1.115-2.211q.014-1.161.81-2.07c.53-.614 1.267-1.077 2.215-1.402a17 17 0 0 1 2.257-.547 28 28 0 0 1 2.831-.328 83 83 0 0 1 3.917-.16zm.015-8.214c-.925.024-1.742.049-2.446.066q-1.039.038-1.865.074a37 37 0 0 0-1.55.085c-.49.035-.973.077-1.477.13q-3.5.308-6.179 1.147-2.671.837-4.654 2.255c-1.25.876-2.198 1.955-2.842 3.253-.644 1.286-.968 2.77-.97 4.426q-.006 2.19.72 4.023a8.6 8.6 0 0 0 2.128 3.145c1.04.976 2.306 1.707 3.797 2.184 1.49.485 3.225.724 5.203.727 1.414.003 2.708-.1 3.87-.308a13.6 13.6 0 0 0 3.264-1.013 14.5 14.5 0 0 0 2.969-1.82l-.005 2.422 10.099.019-.007-.082c-4.618-.329-8.263-4.227-8.254-8.979.008-4.631 3.478-8.438 7.932-8.92l.006-3.713c.003-1.578-.163-2.958-.499-4.151-.335-1.203-.853-2.23-1.554-3.108-.711-.871-1.61-1.62-2.72-2.227q-1.03-.556-2.542-.978a25 25 0 0 0-3.328-.648 31 31 0 0 0-3.758-.233c-2.523-.005-4.753.236-6.697.733-1.945.497-3.61 1.249-5.018 2.247a11.8 11.8 0 0 0-1.878 1.654 10.2 10.2 0 0 0-1.392 2.025q-.6 1.143-1.115 2.685l9.938 1.65c.385-1.282 1.046-2.22 1.992-2.806.948-.595 2.24-.882 3.898-.871q2.563-.008 3.754.903 1.2.896 1.182 2.793zM.008 11.484 0 15.59l6.859.012.015.457c.024.94.03 2.071.028 3.388l-.029 16.217a102 102 0 0 1-.04 2.991 55 55 0 0 1-.144 2.555c-.062.808-.14 1.605-.245 2.403l10.72.02a56 56 0 0 1-.236-2.474c-.06-.8-.11-1.633-.135-2.52-.025-.879-.031-1.86-.03-2.957l.02-10.636c.74-1.798 1.69-3.182 2.834-4.156 1.141-.97 2.424-1.46 3.837-1.466.634.002 1.187.116 1.683.346.495.227.884.554 1.179.975.224.29.395.615.526.975.13.352.224.783.276 1.282.05.501.077 1.124.075 1.851L27.175 35.7a117 117 0 0 1-.04 3.027 53 53 0 0 1-.145 2.554c-.062.8-.14 1.587-.247 2.368l10.826.02a56 56 0 0 1-.371-5.01 96 96 0 0 1-.03-2.888l.02-10.742c.443-1.184.981-2.192 1.634-3.026q.979-1.258 2.19-1.926a5.1 5.1 0 0 1 2.535-.67c.986-.007 1.777.178 2.384.548.605.36 1.038.948 1.314 1.758.278.808.404 1.869.402 3.176l-.02 10.847c0 1.176-.01 2.21-.039 3.099-.029.895-.08 1.72-.143 2.482a49 49 0 0 1-.245 2.369l10.825.02a49 49 0 0 1-.24-2.423 56 56 0 0 1-.133-2.528 102 102 0 0 1-.029-2.947l.023-13.059c.008-3.984-.934-6.987-2.813-9.017s-4.688-3.046-8.41-3.06q-2.253-.006-4.13.466-1.875.471-3.54 1.485c-1.114.672-2.2 1.54-3.268 2.609a11 11 0 0 0-.64-1.116 5.5 5.5 0 0 0-.675-.827 6 6 0 0 0-.814-.693c-.856-.633-1.846-1.11-2.956-1.427-1.118-.319-2.348-.48-3.704-.482q-3.07-.017-5.519 1.044-2.416 1.035-4.377 3.198l.003-1.01v-.195l.004-2.212L6.5 11.494v.002l-6.493-.012zm107.1 7.301c-1.517.005-2.827.362-3.93 1.08q-1.655 1.077-2.559 3.076c-.6 1.342-.906 2.929-.918 4.781-.003 1.51.204 2.852.601 4.028q.61 1.766 1.782 2.928a6.5 6.5 0 0 0 2.27 1.476 7.4 7.4 0 0 0 2.775.533c1.162-.005 2.23-.233 3.212-.687a7.5 7.5 0 0 0 2.534-1.9 8.9 8.9 0 0 0 1.68-2.886c.393-1.104.604-2.315.606-3.623q-.01-2.578-1.033-4.556c-.675-1.316-1.617-2.346-2.823-3.102-1.206-.75-2.61-1.137-4.197-1.148m-39.415 4.56 13.379.025q-.546-2.54-2.196-3.846-1.658-1.322-4.355-1.325c-1.848-.003-3.33.416-4.46 1.264-1.138.857-1.923 2.147-2.368 3.883zm47.545 20.464.003-1.684c0-.157 0-.333.006-.517.01-.193.02-.404.047-.643a22 22 0 0 1-2.504 1.789 13 13 0 0 1-2.429 1.163q-1.223.44-2.588.635c-.918.13-1.917.189-3 .187-3.166-.024-5.89-.714-8.152-2.077-2.254-1.364-3.993-3.317-5.193-5.855q-1.284-2.698-1.665-6.154l-22.24-.04c.268 2.14.992 3.758 2.188 4.866 1.196 1.106 2.816 1.663 4.881 1.674 1.05.003 2.015-.16 2.907-.495a7 7 0 0 0 2.353-1.441c.262-.238.48-.484.663-.72.18-.234.347-.517.486-.823.14-.306.279-.695.418-1.14l9.051 2.595a27 27 0 0 1-1.105 2.297 14 14 0 0 1-1.061 1.667 14.5 14.5 0 0 1-1.278 1.453c-1.484 1.473-3.266 2.584-5.324 3.334-2.066.753-4.383 1.124-6.968 1.12-2.55-.005-4.83-.377-6.832-1.127a14.1 14.1 0 0 1-5.234-3.37c-1.54-1.591-2.71-3.48-3.513-5.658-.803-2.177-1.2-4.583-1.202-7.198.011-2.616.417-4.984 1.203-7.107.784-2.113 1.906-3.936 3.364-5.461 1.462-1.516 3.207-2.68 5.23-3.5 2.03-.813 4.297-1.221 6.784-1.227 2.716.016 5.137.502 7.252 1.463a13.9 13.9 0 0 1 5.302 4.205c1.405 1.808 2.41 4.016 3.022 6.608q.261-1.216.653-2.329c.765-2.158 1.881-3.98 3.34-5.487a13.5 13.5 0 0 1 4.682-3.056c1.79-.689 3.75-1.036 5.89-1.032 1.4.003 2.689.126 3.878.393a14 14 0 0 1 3.433 1.26c1.102.582 2.219 1.33 3.354 2.262-.025-.385-.033-.72-.042-1.017-.006-.298-.005-.623-.004-.983l.007-4.37q.005-1.83-.031-3.265a54 54 0 0 0-.125-2.651A41 41 0 0 0 114.898 0l6.011.011 4.66.008 12.141.022-.007 4.133-12.487-.023a97 97 0 0 0-.08 4.135l-.05 27.276c0 1.166.008 2.21.04 3.133q.038 1.396.125 2.624c.06.825.135 1.658.24 2.509zm11.555.021 10.84.02.062-35.023-10.84-.02zm89.424-19.563-1.397-.003c.1-.623.197-1.164.297-1.613a10 10 0 0 1 .38-1.245c.148-.384.33-.772.56-1.18q1.126-2.107 2.927-3.215c1.198-.737 2.561-1.11 4.071-1.116 1.18.002 2.255.19 3.216.565a7.6 7.6 0 0 1 2.591 1.692 8 8 0 0 1 1.31 1.658c.35.6.627 1.257.832 1.996.214.733.358 1.567.455 2.49l-15.242-.027zM241.947 6c.122.824.212 1.705.26 2.636.055.932.078 1.905.076 2.902l-.003 1.898-1.97-.004a52 52 0 0 1-1.765-.03 19 19 0 0 1-1.36-.083 22 22 0 0 1-1.304-.194l-.008 3.793a43 43 0 0 1 1.5-.165c.461-.038.932-.07 1.4-.097a30 30 0 0 1 1.531-.03l1.97.004-.032 17.867q-.004 1.745.317 2.9.33 1.153 1.053 1.891.749.75 1.97 1.153 1.215.4 2.854.404a16 16 0 0 0 1.887-.103c.6-.077 1.19-.2 1.791-.364.589-.167 1.224-.39 1.886-.67l-1.076-3.498q-.803.496-1.446.782a5.7 5.7 0 0 1-2.446.51 4.3 4.3 0 0 1-1.394-.22 2.8 2.8 0 0 1-1.02-.633q-.332-.324-.48-.95c-.107-.415-.154-.98-.153-1.696l.03-17.367 2.365.004q1.096.002 1.938.03a21.4 21.4 0 0 1 3.084.28l.007-3.793c-.566.08-1.085.14-1.57.188-.477.04-.983.065-1.527.08q-.808.023-1.927.022l-2.363-.005.003-1.897c.001-1.073.027-2.06.086-2.977.052-.914.145-1.762.27-2.56L241.946 6zm-53.515 34.238a42 42 0 0 1-.307-3.636 52 52 0 0 1-.028-2.005l.016-9.632q.197-.987.48-1.787c.19-.541.439-1.056.723-1.562.29-.5.643-1.029 1.071-1.586 1.027-1.346 2.12-2.334 3.27-2.981a7.5 7.5 0 0 1 3.777-.95c1.953.011 3.437.596 4.462 1.763 1.022 1.174 1.528 2.881 1.532 5.135l-.02 11.628c-.002.724-.01 1.388-.037 2.004a32 32 0 0 1-.117 1.797q-.074.875-.201 1.839l4.431.008a31 31 0 0 1-.195-1.613 35 35 0 0 1-.11-1.765 65 65 0 0 1-.03-2.213l.014-7.286 3.77.007c.046 1.946.33 3.716.866 5.3.58 1.74 1.415 3.22 2.513 4.454A11 11 0 0 0 218.277 40c1.544.654 3.29.988 5.225 1q2.7.002 4.944-.882a11.6 11.6 0 0 0 3.974-2.595c.37-.375.708-.749 1.004-1.115q.432-.557.838-1.276c.272-.476.568-1.057.874-1.747l-3.445-1.404c-.692 1.92-1.729 3.375-3.093 4.353s-3.044 1.476-5.04 1.472q-2.228-.004-3.986-.88a7.8 7.8 0 0 1-2.947-2.527 8.5 8.5 0 0 1-1.067-1.865 10.4 10.4 0 0 1-.619-2.23q-.205-1.236-.274-2.894l1.546.003 19.182.034q-.046-.699-.122-1.472-.069-.786-.128-1.431a52 52 0 0 1-.087-.94q-.502-3.36-2.107-5.786a10.97 10.97 0 0 0-4.096-3.733c-1.664-.876-3.568-1.32-5.693-1.332-1.853.005-3.53.334-5.027.998q-2.249.989-3.85 2.845c-1.078 1.237-1.901 2.724-2.48 4.453q-.498 1.5-.715 3.209l-3.92-.007.003-1.896c.002-1.224-.111-2.304-.33-3.244-.23-.948-.573-1.782-1.038-2.498a7.63 7.63 0 0 0-3.196-2.792c-1.335-.634-2.893-.961-4.675-.964-2.206-.012-4.127.482-5.77 1.47-1.636.995-3.032 2.506-4.185 4.549.05-.373.084-.69.106-.93q.032-.375.034-.65c.01-.182.01-.373.01-.564l.007-3.394-4.087-.008a59 59 0 0 1 .237 1.848c.056.582.093 1.172.12 1.78.023.599.03 1.272.029 2.012l-.028 15.62q0 1.184-.035 2.105c-.03.614-.07 1.206-.128 1.762A49 49 0 0 1 184 40.23zM167 50.97l16.993.03.007-3.97-16.993-.03z" fill="white"/><path d="M173.987 42c3.855.007 7.006-3.13 7.013-6.985s-3.133-7.008-6.988-7.015c-3.857-.007-7.005 3.135-7.012 6.99s3.13 7.003 6.987 7.01" fill="#EA4555"/></g></svg>