<?xml version="1.0" encoding="utf-8"?>
<svg viewBox="9.064 16.189 152.233 36.25" xmlns="http://www.w3.org/2000/svg">
  <defs>
    <linearGradient id="a" x1="65.916" y1="40.075" x2="51.714" y2="43.836" gradientUnits="userSpaceOnUse" gradientTransform="matrix(1, 0, 0, 1, -1.839366, 5.313723)">
      <stop stop-color="#EE3984"/>
      <stop offset="1" stop-color="#7800DA"/>
    </linearGradient>
    <linearGradient id="b" x1="15.072" y1="43.532" x2="29.616" y2="38.915" gradientUnits="userSpaceOnUse" gradientTransform="matrix(1, 0, 0, 1, -1.839366, 5.313723)">
      <stop stop-color="#EE3984"/>
      <stop offset="1" stop-color="#7800DA"/>
    </linearGradient>
    <linearGradient id="c" x1="37.035" y1="40.904" x2="46.819" y2="24.91" gradientUnits="userSpaceOnUse" gradientTransform="matrix(1, 0, 0, 1, -1.839366, 5.313723)">
      <stop stop-color="#EE3984"/>
      <stop offset="1" stop-color="#7800DA"/>
    </linearGradient>
    <linearGradient id="d" x1="34.668" y1="25.673" x2="39.854" y2="43.97" gradientUnits="userSpaceOnUse" gradientTransform="matrix(1, 0, 0, 1, -1.839366, 5.313723)">
      <stop stop-color="red"/>
      <stop offset="1" stop-color="#EE3984"/>
    </linearGradient>
    <linearGradient id="e" x1="24.058" y1="25.726" x2="46.961" y2="25.726" gradientUnits="userSpaceOnUse" gradientTransform="matrix(1, 0, 0, 1, -1.839366, 5.313723)">
      <stop stop-color="#FFC708"/>
      <stop offset="1" stop-color="#FA3B00"/>
    </linearGradient>
    <linearGradient id="f" x1="52.883" y1="32.509" x2="68.71" y2="32.509" gradientUnits="userSpaceOnUse" gradientTransform="matrix(1, 0, 0, 1, -1.839366, 5.313723)">
      <stop stop-color="red"/>
      <stop offset="1" stop-color="#EE3984"/>
    </linearGradient>
    <linearGradient id="g" x1="54.611" y1="23.687" x2="67.924" y2="23.687" gradientUnits="userSpaceOnUse" gradientTransform="matrix(1, 0, 0, 1, -1.839366, 5.313723)">
      <stop stop-color="#FFC708"/>
      <stop offset="1" stop-color="#F05731"/>
    </linearGradient>
    <linearGradient id="h" x1="13.419" y1="12.258" x2="13.419" y2="22.63" gradientUnits="userSpaceOnUse" gradientTransform="matrix(1, 0, 0, 1, -1.839366, 5.313723)">
      <stop stop-color="#FFC708"/>
      <stop offset="1" stop-color="#F05731"/>
    </linearGradient>
    <linearGradient id="i" x1="19.123" y1="20.228" x2="16.412" y2="39.852" gradientUnits="userSpaceOnUse" gradientTransform="matrix(1, 0, 0, 1, -1.839366, 5.313723)">
      <stop stop-color="#F80000"/>
      <stop offset="1" stop-color="#EE3984"/>
    </linearGradient>
  </defs>
  <path d="M 50.101 49.034 C 50.101 49.871 50.52 50.554 51.621 51.076 C 53.142 51.809 55.603 52.438 57.806 52.438 C 60.583 52.438 62.89 51.6 64.514 50.134 C 65.038 49.662 65.478 49.029 65.568 48.196 C 65.773 46.286 63.758 43.096 59.588 40.758 C 61.615 41.894 62.104 43.063 62.104 44.583 C 62.104 46.835 60.322 48.353 57.754 48.353 C 55.291 48.353 53.192 47.096 52.041 47.096 C 50.89 47.096 50.101 47.88 50.101 49.033 L 50.101 49.034 Z" fill="url(#a)"/>
  <path d="M 77.989 25.216 L 81.595 25.216 L 81.595 18.786 L 84.153 18.786 L 84.153 16.189 L 75.431 16.189 L 75.431 18.787 L 77.989 18.787 L 77.989 25.217 L 77.989 25.216 Z M 86.811 25.216 L 88.648 19.818 L 90.486 25.217 L 94.011 25.217 L 90.556 16.189 L 86.741 16.189 L 83.286 25.216 L 86.811 25.216 Z M 95.704 25.216 L 99.31 25.216 L 99.31 18.786 L 101.868 18.786 L 101.868 16.189 L 93.146 16.189 L 93.146 18.787 L 95.704 18.787 L 95.704 25.217 L 95.704 25.216 Z M 104.526 25.216 L 106.363 19.818 L 108.2 25.217 L 111.726 25.217 L 108.271 16.189 L 104.456 16.189 L 101.001 25.216 L 104.526 25.216 L 104.526 25.216 Z M 139.129 31.672 C 139.605 32.741 140.146 33.781 140.748 34.785 L 143.102 38.756 L 144.811 38.756 L 144.811 29.729 L 143.285 29.729 L 143.285 32.879 C 143.285 34.259 143.317 35.42 143.433 36.619 L 143.402 36.629 C 142.958 35.586 142.444 34.576 141.863 33.604 L 139.529 29.729 L 137.645 29.729 L 137.645 38.756 L 139.17 38.756 L 139.17 35.524 C 139.17 34.042 139.149 32.85 139.084 31.679 L 139.129 31.673 L 139.129 31.672 Z M 130.939 36.205 L 133.806 36.205 L 134.624 38.756 L 136.394 38.756 L 133.459 29.73 L 131.36 29.73 L 128.461 38.756 L 130.167 38.756 L 130.939 36.206 L 130.939 36.205 Z M 131.906 32.729 C 132.064 32.192 132.204 31.567 132.336 31.035 L 132.364 31.035 C 132.5 31.558 132.646 32.173 132.822 32.729 L 133.535 34.954 L 131.208 34.954 L 131.906 32.729 Z M 104.049 37.533 C 103.285 37.527 102.535 37.329 101.868 36.957 L 101.501 38.322 C 101.996 38.625 102.987 38.898 103.943 38.898 C 106.275 38.898 107.369 37.638 107.369 36.185 C 107.369 34.887 106.616 34.099 105.046 33.502 C 103.839 33.042 103.317 32.715 103.317 32.023 C 103.317 31.492 103.762 30.936 104.809 30.936 C 105.436 30.931 106.055 31.078 106.614 31.364 L 107.009 30.034 C 106.538 29.796 105.82 29.588 104.843 29.588 C 102.884 29.588 101.647 30.702 101.647 32.179 C 101.647 33.473 102.6 34.273 104.095 34.803 C 105.236 35.217 105.696 35.619 105.696 36.301 C 105.691 37.04 105.103 37.533 104.049 37.533 L 104.049 37.533 Z M 80.336 30.949 C 80.94 30.942 81.539 31.062 82.095 31.301 L 82.455 29.989 C 82.119 29.808 81.353 29.589 80.265 29.589 C 77.505 29.589 75.431 31.377 75.431 34.349 C 75.431 37.097 77.177 38.899 80.045 38.899 C 81.138 38.899 81.997 38.684 82.388 38.489 L 82.116 37.189 C 81.68 37.385 80.986 37.517 80.316 37.517 C 78.33 37.517 77.17 36.256 77.17 34.267 C 77.169 32.097 78.493 30.949 80.336 30.949 Z M 126.454 38.756 L 126.454 31.116 L 129.059 31.116 L 129.059 29.73 L 122.224 29.73 L 122.224 31.116 L 124.805 31.116 L 124.805 38.756 L 126.454 38.756 Z M 159.431 29.73 L 158.343 32.041 C 158.063 32.628 157.802 33.224 157.562 33.829 L 157.534 33.829 C 157.288 33.226 157.025 32.629 156.746 32.041 L 155.674 29.73 L 153.79 29.73 L 156.646 35 L 156.646 38.757 L 158.296 38.757 L 158.296 34.954 L 161.297 29.73 L 159.431 29.73 Z M 87.237 29.582 C 84.685 29.582 82.935 31.54 82.935 34.312 C 82.935 36.954 84.549 38.906 87.103 38.906 L 87.115 38.906 C 89.589 38.906 91.424 37.176 91.424 34.151 C 91.424 31.571 89.87 29.581 87.237 29.581 L 87.237 29.582 Z M 87.172 37.582 L 87.159 37.582 C 85.582 37.582 84.659 36.065 84.664 34.27 C 84.669 32.476 85.531 30.9 87.176 30.9 C 88.821 30.9 89.668 32.51 89.668 34.213 C 89.668 36.103 88.765 37.585 87.171 37.585 L 87.171 37.583 L 87.172 37.582 Z M 151.142 30.949 C 151.746 30.942 152.346 31.062 152.902 31.301 L 153.262 29.989 C 152.926 29.808 152.161 29.589 151.073 29.589 C 148.312 29.589 146.238 31.377 146.238 34.349 C 146.238 37.097 147.984 38.899 150.852 38.899 C 151.944 38.899 152.804 38.685 153.195 38.489 L 152.923 37.189 C 152.486 37.386 151.793 37.518 151.122 37.518 C 149.137 37.518 147.977 36.256 147.977 34.268 C 147.975 32.098 149.3 30.949 151.142 30.949 Z M 119.427 29.73 L 117.776 29.73 L 117.776 38.757 L 123.14 38.757 L 123.14 37.373 L 119.427 37.373 L 119.427 29.73 L 119.427 29.73 Z M 115.898 34.886 L 115.898 29.73 L 114.247 29.73 L 114.247 34.993 C 114.247 36.762 113.533 37.578 112.344 37.578 C 111.225 37.578 110.493 36.757 110.493 34.993 L 110.493 29.73 L 108.843 29.73 L 108.843 34.894 C 108.843 37.733 110.201 38.904 112.284 38.904 C 114.466 38.906 115.898 37.667 115.898 34.886 L 115.898 34.886 Z M 100.006 29.729 L 98.48 29.729 L 98.48 32.879 C 98.48 34.259 98.51 35.42 98.627 36.619 L 98.596 36.629 C 98.152 35.586 97.638 34.576 97.057 33.604 L 94.723 29.729 L 92.841 29.729 L 92.841 38.756 L 94.368 38.756 L 94.368 35.524 C 94.368 34.042 94.346 32.85 94.28 31.679 L 94.323 31.669 C 94.799 32.739 95.34 33.779 95.943 34.783 L 98.297 38.753 L 100.007 38.753 L 100.007 29.73 L 100.006 29.729 Z M 107.064 43.269 L 105.414 43.269 L 105.414 52.296 L 107.064 52.296 L 107.064 43.269 Z M 94.071 48.064 L 94.071 48.027 C 94.919 47.727 95.7 46.941 95.7 45.787 C 95.7 45.019 95.417 44.4 94.928 43.99 C 94.324 43.486 93.281 43.268 92.164 43.268 C 91.333 43.255 90.502 43.32 89.684 43.461 L 89.684 52.296 L 91.307 52.296 L 91.307 48.614 L 92.131 48.614 C 93.061 48.636 93.487 49.015 93.744 50.182 C 93.994 51.295 94.21 52.034 94.346 52.296 L 96.028 52.296 C 95.848 51.946 95.605 50.918 95.321 49.799 C 95.097 48.929 94.719 48.31 94.071 48.065 L 94.071 48.064 Z M 92.274 47.414 L 91.305 47.414 L 91.305 44.584 C 91.64 44.519 91.981 44.491 92.322 44.502 C 93.382 44.502 94.068 44.962 94.068 45.939 C 94.068 46.829 93.384 47.413 92.274 47.413 L 92.274 47.414 Z M 101.369 47.399 C 101.02 48.495 100.69 49.597 100.451 50.663 L 100.423 50.663 C 100.188 49.572 99.881 48.515 99.538 47.375 L 98.305 43.27 L 96.505 43.27 L 99.424 52.296 L 101.316 52.296 L 104.438 43.27 L 102.682 43.27 L 101.369 47.399 L 101.369 47.399 Z M 118.482 48.291 L 121.885 48.291 L 121.885 46.946 L 118.482 46.946 L 118.482 44.626 L 122.088 44.626 L 122.088 43.269 L 116.831 43.269 L 116.831 52.297 L 122.287 52.297 L 122.287 50.94 L 118.482 50.94 L 118.482 48.292 L 118.482 48.291 Z M 113.39 44.489 C 113.994 44.482 114.594 44.601 115.15 44.84 L 115.509 43.528 C 115.174 43.348 114.408 43.128 113.321 43.128 C 110.559 43.128 108.485 44.921 108.485 47.889 C 108.485 50.637 110.232 52.439 113.1 52.439 C 114.192 52.439 115.052 52.225 115.443 52.028 L 115.17 50.728 C 114.734 50.926 114.041 51.058 113.37 51.058 C 111.384 51.058 110.225 49.795 110.225 47.807 C 110.22 45.637 111.545 44.489 113.39 44.489 L 113.39 44.489 Z M 78.975 47.042 C 77.768 46.582 77.246 46.256 77.246 45.564 C 77.246 45.032 77.691 44.477 78.738 44.477 C 79.365 44.472 79.983 44.619 80.542 44.905 L 80.938 43.575 C 80.468 43.336 79.749 43.128 78.771 43.128 C 76.813 43.128 75.576 44.243 75.576 45.72 C 75.576 47.014 76.529 47.814 78.024 48.343 C 79.167 48.758 79.625 49.16 79.625 49.841 C 79.625 50.581 79.036 51.074 77.983 51.074 C 77.219 51.068 76.469 50.87 75.803 50.498 L 75.436 51.863 C 75.93 52.165 76.921 52.439 77.877 52.439 C 80.209 52.439 81.303 51.178 81.303 49.725 C 81.298 48.428 80.543 47.639 78.975 47.042 L 78.975 47.042 Z M 84.431 48.291 L 87.834 48.291 L 87.834 46.946 L 84.432 46.946 L 84.432 44.626 L 88.038 44.626 L 88.038 43.269 L 82.781 43.269 L 82.781 52.297 L 88.238 52.297 L 88.238 50.94 L 84.431 50.94 L 84.431 48.292 L 84.431 48.291 Z M 126.881 47.042 C 125.675 46.582 125.152 46.256 125.152 45.564 C 125.152 45.032 125.597 44.477 126.645 44.477 C 127.272 44.472 127.89 44.619 128.449 44.905 L 128.844 43.575 C 128.374 43.336 127.656 43.128 126.678 43.128 C 124.719 43.128 123.482 44.243 123.482 45.72 C 123.482 47.014 124.436 47.814 125.93 48.343 C 127.072 48.758 127.531 49.16 127.531 49.841 C 127.531 50.581 126.942 51.074 125.891 51.074 C 125.126 51.068 124.376 50.87 123.708 50.498 L 123.342 51.863 C 123.836 52.165 124.828 52.439 125.783 52.439 C 128.115 52.439 129.209 51.178 129.209 49.725 C 129.204 48.428 128.449 47.639 126.881 47.042 L 126.881 47.042 Z" fill="#fff"/>
  <path d="M 21.433 51.808 C 23.533 51.023 25.154 49.556 26.203 47.408 L 23.844 43.166 C 22.796 46.308 20.962 47.985 18.446 47.985 C 15.826 47.985 14.096 46.465 14.096 43.009 L 14.041 44.997 C 13.58 49.217 16.1 52.974 21.433 51.808 L 21.433 51.808 Z" fill="url(#b)"/>
  <path d="M 27.251 38.14 C 27.251 47.518 31.024 52.756 42.974 50.973 C 46.799 48.983 49.524 44.949 51.411 38.768 L 52.511 35.154 C 51.464 33.792 51.044 32.274 51.044 30.649 C 51.044 28.92 51.673 27.349 52.721 26.197 C 51.148 27.873 49.839 30.335 48.791 33.795 L 47.585 37.775 C 45.435 44.79 42.032 48.142 36.737 48.142 C 30.919 48.142 27.251 44.109 27.251 38.14 Z" fill="url(#c)"/>
  <path d="M 42.973 50.971 C 31.027 52.752 27.251 46.361 27.251 38.141 C 27.251 32.169 30.919 28.083 36.212 28.083 C 37.95 28.07 39.669 28.446 41.244 29.183 C 41.926 29.497 42.502 29.603 43.026 29.603 C 44.284 29.603 45.123 28.764 45.123 27.503 C 45.123 26.718 44.651 25.933 43.551 25.408 C 41.559 24.413 38.989 23.836 36.213 23.836 C 27.933 23.836 22.22 29.704 22.22 38.241 C 22.22 46.623 27.722 52.437 36.58 52.437 C 38.991 52.437 41.086 51.967 42.973 50.971 L 42.973 50.971 Z" fill="url(#d)"/>
  <path d="M 22.219 38.242 C 22.219 29.704 27.932 23.837 36.212 23.837 C 38.99 23.837 41.559 24.416 43.55 25.409 C 44.65 25.933 45.122 26.719 45.122 27.504 C 45.122 28.762 44.283 29.603 43.026 29.603 C 42.501 29.603 41.925 29.498 41.244 29.183 C 39.669 28.447 37.95 28.071 36.212 28.083 C 28.928 28.083 22.219 32.69 22.219 38.243 L 22.219 38.242 Z" fill="url(#e)"/>
  <path d="M 53.508 25.514 C 53.035 25.965 52.769 26.59 52.773 27.244 C 52.773 28.971 54.398 31.538 58.173 34.157 L 62.47 37.142 C 65.614 39.342 66.872 41.437 66.872 44.581 C 66.872 46.833 65.982 48.771 64.513 50.133 C 65.038 49.661 65.352 49.033 65.352 48.195 C 65.352 46.362 63.517 43.48 59.586 40.757 L 55.656 38.034 C 52.354 35.73 51.044 33.582 51.044 30.648 C 51.044 28.919 51.673 27.348 52.721 26.196 C 52.969 25.953 53.232 25.725 53.508 25.514 L 53.508 25.514 Z" fill="url(#f)"/>
  <path d="M 58.171 34.16 C 56.494 32.955 55.761 31.856 55.761 30.546 C 55.761 28.87 57.124 27.823 59.062 27.823 C 61.524 27.823 62.682 28.975 64.146 28.975 C 65.3 28.975 66.086 28.19 66.086 27.037 C 66.086 26.199 65.666 25.517 64.564 24.994 C 62.834 24.156 60.944 23.841 58.904 23.841 C 56.756 23.841 54.869 24.47 53.506 25.518 C 53.034 25.969 52.768 26.594 52.772 27.247 C 52.773 28.971 54.398 31.537 58.172 34.16 L 58.171 34.16 Z" fill="url(#g)"/>
  <path d="M 9.064 29.18 C 9.064 26.038 11.109 24.152 14.096 24.152 L 14.096 18.809 C 14.096 17.237 13.048 16.189 11.581 16.189 C 10.114 16.189 9.065 17.238 9.065 18.809 L 9.065 29.18 L 9.064 29.18 Z" fill="url(#h)"/>
  <path d="M 17.975 52.385 C 19.152 52.389 20.321 52.193 21.433 51.807 C 16.14 52.697 14.149 49.057 14.096 44.998 L 14.096 28.238 L 20.228 28.238 C 21.644 28.238 22.586 27.4 22.586 26.195 C 22.586 24.989 21.646 24.151 20.228 24.151 L 14.096 24.151 C 11.109 24.151 9.064 26.038 9.064 29.18 L 9.064 43.584 C 9.064 49.346 12.366 52.384 17.974 52.384 L 17.975 52.385 Z" fill="url(#i)"/>
</svg>